<svg width="12" height="10" viewBox="0 0 12 10" fill="none" xmlns="http://www.w3.org/2000/svg">
<path d="M10.99 1.32713L10.004 0.223256C9.87105 0.0744186 9.70487 0 9.51653 0C9.3282 0 9.16202 0.0744186 9.02907 0.223256L4.28743 5.53178L2.17141 3.15039C2.03847 3.00155 1.87229 2.92713 1.68395 2.92713C1.49561 2.92713 1.32943 3.00155 1.19649 3.15039L0.210494 4.25426C0.0664717 4.4031 0 4.58915 0 4.8C0 5.01085 0.0664717 5.1969 0.199415 5.34574L2.81397 8.27287L3.79997 9.37674C3.93291 9.52558 4.09909 9.6 4.28743 9.6C4.47576 9.6 4.64194 9.52558 4.77488 9.37674L5.76088 8.27287L10.99 2.4186C11.1229 2.26977 11.1894 2.08372 11.1894 1.87287C11.1894 1.66202 11.1229 1.47597 10.99 1.32713Z" fill="#FD2016"/>
</svg>
